<?xml version="1.0" encoding="UTF-8" standalone="no"?>
<!DOCTYPE svg PUBLIC "-//W3C//DTD SVG 1.1//EN"
 "http://www.w3.org/Graphics/SVG/1.1/DTD/svg11.dtd">
<!-- Generated by graphviz version 8.1.0 (20230707.0739)
 -->
<!-- Pages: 1 -->
<svg width="145pt" height="310pt"
 viewBox="0.00 0.00 144.75 309.50" xmlns="http://www.w3.org/2000/svg" xmlns:xlink="http://www.w3.org/1999/xlink">
<g id="graph0" class="graph" transform="scale(1 1) rotate(0) translate(4 305.5)">
<polygon fill="white" stroke="none" points="-4,4 -4,-305.5 140.75,-305.5 140.75,4 -4,4"/>
<!-- 0 -->
<g id="node1" class="node">
<title>0</title>
<ellipse fill="none" stroke="black" cx="90" cy="-283.5" rx="27" ry="18"/>
<text text-anchor="middle" x="90" y="-278.45" font-family="Times,serif" font-size="14.00">0</text>
</g>
<!-- 11 -->
<g id="node2" class="node">
<title>11</title>
<ellipse fill="none" stroke="black" cx="27" cy="-195" rx="27" ry="18"/>
<text text-anchor="middle" x="27" y="-189.95" font-family="Times,serif" font-size="14.00">11</text>
</g>
<!-- 0&#45;&gt;11 -->
<g id="edge1" class="edge">
<title>0&#45;&gt;11</title>
<path fill="none" stroke="black" d="M76.52,-267.52C71.26,-261.45 65.29,-254.29 60.25,-247.5 54.07,-239.18 47.78,-229.74 42.36,-221.24"/>
<polygon fill="black" stroke="black" points="44.94,-219.76 36.66,-213.14 39.01,-223.47 44.94,-219.76"/>
<text text-anchor="middle" x="68.88" y="-234.2" font-family="Times,serif" font-size="14.00">Co</text>
</g>
<!-- 61 -->
<g id="node3" class="node">
<title>61</title>
<ellipse fill="none" stroke="black" cx="81" cy="-106.5" rx="27" ry="18"/>
<text text-anchor="middle" x="81" y="-101.45" font-family="Times,serif" font-size="14.00">61</text>
</g>
<!-- 0&#45;&gt;61 -->
<g id="edge2" class="edge">
<title>0&#45;&gt;61</title>
<path fill="none" stroke="black" d="M89.1,-265.08C87.55,-234.81 84.33,-172.26 82.45,-135.72"/>
<polygon fill="black" stroke="black" points="85.9,-135.66 81.89,-125.85 78.91,-136.02 85.9,-135.66"/>
<text text-anchor="middle" x="94.88" y="-189.95" font-family="Times,serif" font-size="14.00">Co</text>
</g>
<!-- 65 -->
<g id="node4" class="node">
<title>65</title>
<ellipse fill="none" stroke="black" cx="81" cy="-18" rx="27" ry="18"/>
<text text-anchor="middle" x="81" y="-12.95" font-family="Times,serif" font-size="14.00">65</text>
</g>
<!-- 0&#45;&gt;65 -->
<g id="edge3" class="edge">
<title>0&#45;&gt;65</title>
<path fill="none" stroke="black" d="M96.3,-265.73C108.14,-231.92 131.28,-153.25 117,-88.5 113.5,-72.64 105.42,-56.44 97.8,-43.67"/>
<polygon fill="black" stroke="black" points="100.42,-42.26 92.15,-35.64 94.49,-45.97 100.42,-42.26"/>
<text text-anchor="middle" x="128.88" y="-145.7" font-family="Times,serif" font-size="14.00">Co</text>
</g>
<!-- 11&#45;&gt;61 -->
<g id="edge4" class="edge">
<title>11&#45;&gt;61</title>
<path fill="none" stroke="black" d="M36.9,-178.13C44.85,-165.41 56.14,-147.32 65.31,-132.63"/>
<polygon fill="black" stroke="black" points="68.65,-134.89 70.98,-124.56 62.71,-131.19 68.65,-134.89"/>
<text text-anchor="middle" x="66.88" y="-145.7" font-family="Times,serif" font-size="14.00">Co</text>
</g>
<!-- 11&#45;&gt;65 -->
<g id="edge5" class="edge">
<title>11&#45;&gt;65</title>
<path fill="none" stroke="black" d="M24.22,-176.63C21.49,-155.25 19.08,-118.13 29.25,-88.5 35.28,-70.93 47.54,-54.14 58.61,-41.46"/>
<polygon fill="black" stroke="black" points="60.83,-44.13 64.99,-34.38 55.66,-39.4 60.83,-44.13"/>
<text text-anchor="middle" x="37.88" y="-101.45" font-family="Times,serif" font-size="14.00">Co</text>
</g>
<!-- 61&#45;&gt;65 -->
<g id="edge6" class="edge">
<title>61&#45;&gt;65</title>
<path fill="none" stroke="black" d="M81,-88.41C81,-76.64 81,-60.73 81,-47.11"/>
<polygon fill="black" stroke="black" points="84.5,-47.35 81,-37.35 77.5,-47.35 84.5,-47.35"/>
<text text-anchor="middle" x="88.88" y="-57.2" font-family="Times,serif" font-size="14.00">Co</text>
</g>
</g>
</svg>
