<?xml version="1.0" encoding="UTF-8" standalone="no"?>
<!DOCTYPE svg PUBLIC "-//W3C//DTD SVG 1.1//EN"
 "http://www.w3.org/Graphics/SVG/1.1/DTD/svg11.dtd">
<!-- Generated by graphviz version 10.0.1 (20240210.2158)
 -->
<!-- Pages: 1 -->
<svg width="145pt" height="310pt"
 viewBox="0.00 0.00 144.75 309.50" xmlns="http://www.w3.org/2000/svg" xmlns:xlink="http://www.w3.org/1999/xlink">
<g id="graph0" class="graph" transform="scale(1 1) rotate(0) translate(4 305.5)">
<polygon fill="white" stroke="none" points="-4,4 -4,-305.5 140.75,-305.5 140.75,4 -4,4"/>
<!-- 0 -->
<g id="node1" class="node">
<title>0</title>
<ellipse fill="none" stroke="black" cx="90" cy="-283.5" rx="27" ry="18"/>
<text text-anchor="middle" x="90" y="-278.45" font-family="Times,serif" font-size="14.00">0</text>
</g>
<!-- 9 -->
<g id="node2" class="node">
<title>9</title>
<ellipse fill="none" stroke="black" cx="27" cy="-195" rx="27" ry="18"/>
<text text-anchor="middle" x="27" y="-189.95" font-family="Times,serif" font-size="14.00">9</text>
</g>
<!-- 0&#45;&gt;9 -->
<g id="edge1" class="edge">
<title>0&#45;&gt;9</title>
<path fill="none" stroke="black" d="M76.52,-267.52C71.26,-261.45 65.29,-254.29 60.25,-247.5 54.2,-239.36 48.05,-230.15 42.71,-221.79"/>
<polygon fill="black" stroke="black" points="45.75,-220.03 37.47,-213.42 39.82,-223.75 45.75,-220.03"/>
<text text-anchor="middle" x="68.88" y="-234.2" font-family="Times,serif" font-size="14.00">Co</text>
</g>
<!-- 29 -->
<g id="node3" class="node">
<title>29</title>
<ellipse fill="none" stroke="black" cx="81" cy="-106.5" rx="27" ry="18"/>
<text text-anchor="middle" x="81" y="-101.45" font-family="Times,serif" font-size="14.00">29</text>
</g>
<!-- 0&#45;&gt;29 -->
<g id="edge2" class="edge">
<title>0&#45;&gt;29</title>
<path fill="none" stroke="black" d="M89.1,-265.08C87.55,-234.94 84.36,-172.8 82.48,-136.2"/>
<polygon fill="black" stroke="black" points="85.98,-136.17 81.97,-126.36 78.99,-136.53 85.98,-136.17"/>
<text text-anchor="middle" x="94.88" y="-189.95" font-family="Times,serif" font-size="14.00">Co</text>
</g>
<!-- 37 -->
<g id="node4" class="node">
<title>37</title>
<ellipse fill="none" stroke="black" cx="81" cy="-18" rx="27" ry="18"/>
<text text-anchor="middle" x="81" y="-12.95" font-family="Times,serif" font-size="14.00">37</text>
</g>
<!-- 0&#45;&gt;37 -->
<g id="edge3" class="edge">
<title>0&#45;&gt;37</title>
<path fill="none" stroke="black" d="M96.3,-265.73C108.14,-231.92 131.28,-153.25 117,-88.5 113.54,-72.79 105.58,-56.76 98.03,-44.05"/>
<polygon fill="black" stroke="black" points="101.22,-42.55 92.95,-35.93 95.28,-46.26 101.22,-42.55"/>
<text text-anchor="middle" x="128.88" y="-145.7" font-family="Times,serif" font-size="14.00">Co</text>
</g>
<!-- 9&#45;&gt;29 -->
<g id="edge4" class="edge">
<title>9&#45;&gt;29</title>
<path fill="none" stroke="black" d="M36.9,-178.13C44.77,-165.53 55.93,-147.66 65.05,-133.05"/>
<polygon fill="black" stroke="black" points="67.85,-135.18 70.17,-124.84 61.91,-131.47 67.85,-135.18"/>
<text text-anchor="middle" x="66.88" y="-145.7" font-family="Times,serif" font-size="14.00">Co</text>
</g>
<!-- 9&#45;&gt;37 -->
<g id="edge5" class="edge">
<title>9&#45;&gt;37</title>
<path fill="none" stroke="black" d="M24.22,-176.63C21.49,-155.25 19.08,-118.13 29.25,-88.5 35.22,-71.1 47.3,-54.46 58.29,-41.83"/>
<polygon fill="black" stroke="black" points="60.82,-44.25 64.97,-34.5 55.65,-39.53 60.82,-44.25"/>
<text text-anchor="middle" x="37.88" y="-101.45" font-family="Times,serif" font-size="14.00">Co</text>
</g>
<!-- 29&#45;&gt;37 -->
<g id="edge6" class="edge">
<title>29&#45;&gt;37</title>
<path fill="none" stroke="black" d="M81,-88.41C81,-76.76 81,-61.05 81,-47.52"/>
<polygon fill="black" stroke="black" points="84.5,-47.86 81,-37.86 77.5,-47.86 84.5,-47.86"/>
<text text-anchor="middle" x="88.88" y="-57.2" font-family="Times,serif" font-size="14.00">Co</text>
</g>
</g>
</svg>
